<svg width="426" height="432" viewBox="0 0 426 432" fill="none" xmlns="http://www.w3.org/2000/svg">
<path d="M69.6867 8.25732C64.152 11.3892 59.3641 17.6877 57.0649 24.2297C55.602 24.3903 54.1936 24.8656 52.9406 25.6217L52.0517 26.1552C47.0525 29.7473 43.6575 35.0846 42.5706 41.0605C42.3017 42.5959 42.3017 44.1649 42.5706 45.7003C42.5836 45.8479 42.5552 45.9961 42.4883 46.129C42.4215 46.2619 42.3188 46.3744 42.1913 46.4543L36.4552 49.6673C35.1452 50.5043 34.0549 51.6314 33.2725 52.9573C32.4901 54.2833 32.0376 55.7709 31.9517 57.2997C31.9517 60.1068 33.9901 61.2435 36.4908 59.8284L92.3348 28.2663C93.6494 27.4342 94.7433 26.3082 95.5263 24.9813C96.3092 23.6543 96.7589 22.1643 96.8383 20.6339C96.8383 17.8268 94.7999 16.7017 92.3111 18.1168L83.1618 23.2786C82.8773 23.441 82.6877 23.2786 82.7944 22.8842C83.633 20.2802 83.9785 17.5481 83.8136 14.8226C83.2092 7.42216 77.6153 4.3831 70.777 7.71214C70.3859 7.87453 70.0304 8.06013 69.6867 8.25732Z" fill="#E6E6E6"/>
<path d="M26.0376 1.29756C21.9337 3.89474 18.8602 7.78694 17.3268 12.3286C16.3187 12.4368 15.3475 12.7616 14.4825 13.2798C14.2701 13.3964 14.0644 13.5242 13.8662 13.6626C10.4063 16.1354 8.05787 19.8222 7.31234 23.9512C7.12842 25.0069 7.12842 26.0854 7.31234 27.1411C7.3222 27.2432 7.30307 27.3459 7.25706 27.438C7.21105 27.5301 7.13996 27.608 7.05161 27.6631L3.10508 29.8902C2.20146 30.4677 1.44948 31.2454 0.910035 32.1603C0.37059 33.0752 0.058832 34.1016 0 35.1563C0 37.0934 1.41032 37.8706 3.12878 36.8962L41.6697 15.1125C42.5733 14.5349 43.3253 13.7572 43.8647 12.8423C44.4042 11.9274 44.7159 10.9011 44.7748 9.84634C44.7748 7.90924 43.3645 7.13207 41.646 8.10643L35.3884 11.6675C35.187 11.7834 35.0566 11.6675 35.1277 11.4007C35.7067 9.60223 35.9437 7.71508 35.8269 5.83294C35.4121 0.729187 31.5486 -1.37031 26.7961 0.926378L26.0376 1.29756Z" fill="#E6E6E6"/>
<path d="M51.1157 387.188L67.5537 396.815C68.8061 397.553 70.2401 397.942 71.7017 397.942C73.1633 397.942 74.5973 397.553 75.8497 396.815L209.498 318.484C209.915 318.234 210.259 317.884 210.498 317.467C210.737 317.049 210.863 316.579 210.863 316.101C210.863 315.622 210.737 315.152 210.498 314.735C210.259 314.317 209.915 313.967 209.498 313.717L193.013 304.089C191.761 303.352 190.327 302.962 188.865 302.962C187.404 302.962 185.97 303.352 184.717 304.089L51.1157 382.455C50.7069 382.707 50.3699 383.056 50.1363 383.47C49.9028 383.884 49.7803 384.349 49.7803 384.821C49.7803 385.294 49.9028 385.759 50.1363 386.173C50.3699 386.587 50.7069 386.936 51.1157 387.188Z" fill="#E0E0E0"/>
<path d="M362.204 363.617C389.818 379.23 389.972 404.528 362.536 420.129C335.099 435.731 290.467 435.742 262.853 420.129C235.239 404.517 235.085 379.23 262.521 363.617C289.957 348.004 334.59 348.016 362.204 363.617Z" fill="#E0E0E0"/>
<path d="M34.4165 301.816C31.3706 298.963 27.8745 295.843 27.6611 291.713C27.673 289.867 28.2603 288.068 29.3446 286.557C30.4289 285.046 31.9585 283.895 33.7291 283.257C35.5148 282.667 37.4036 282.435 39.2829 282.575C41.1622 282.714 42.9936 283.222 44.668 284.069C48.0024 285.794 50.9738 288.12 53.4262 290.924C60.8043 298.949 66.1454 308.564 69.0159 318.987C71.8863 329.411 72.2054 340.35 69.9471 350.917C69.639 352.309 69.1649 353.851 67.8849 354.512C65.8465 355.568 63.5236 353.712 62.1251 351.914C59.0926 347.973 56.8011 343.534 55.358 338.807C54.1728 334.805 54.6943 330.397 53.1536 326.627C49.3848 317.383 41.6695 308.602 34.4165 301.816Z" fill="#BA68C8"/>
<path d="M34.4165 301.816C31.3706 298.963 27.8745 295.843 27.6611 291.713C27.673 289.867 28.2603 288.068 29.3446 286.557C30.4289 285.046 31.9585 283.895 33.7291 283.257C35.5148 282.667 37.4036 282.435 39.2829 282.575C41.1622 282.714 42.9936 283.222 44.668 284.069C48.0024 285.794 50.9738 288.12 53.4262 290.924C60.8043 298.949 66.1454 308.564 69.0159 318.987C71.8863 329.411 72.2054 340.35 69.9471 350.917C69.639 352.309 69.1649 353.851 67.8849 354.512C65.8465 355.568 63.5236 353.712 62.1251 351.914C59.0926 347.973 56.8011 343.534 55.358 338.807C54.1728 334.805 54.6943 330.397 53.1536 326.627C49.3848 317.383 41.6695 308.602 34.4165 301.816Z" fill="#BA68C8"/>
<path d="M66.1078 349.118C66.0009 349.118 65.8952 349.097 65.7966 349.057C65.6981 349.016 65.6087 348.957 65.5337 348.883C65.4587 348.808 65.3996 348.72 65.3598 348.623C65.32 348.526 65.3003 348.422 65.3019 348.317C65.2021 336.743 62.4726 325.335 57.3112 314.921C52.1498 304.507 44.6857 295.347 35.4599 288.105C35.3711 288.039 35.2968 287.956 35.2414 287.862C35.1859 287.767 35.1505 287.663 35.1373 287.554C35.124 287.446 35.1331 287.336 35.1641 287.232C35.1951 287.127 35.2474 287.029 35.3177 286.945C35.3868 286.86 35.4724 286.79 35.5694 286.737C35.6665 286.685 35.7731 286.652 35.8832 286.64C35.9933 286.628 36.1047 286.638 36.2111 286.668C36.3174 286.699 36.4166 286.749 36.5029 286.817C45.9238 294.209 53.5449 303.561 58.8133 314.195C64.0816 324.829 66.8648 336.477 66.9611 348.294C66.9644 348.404 66.9446 348.514 66.9027 348.616C66.8609 348.718 66.798 348.811 66.7179 348.888C66.6378 348.965 66.5423 349.026 66.4373 349.065C66.3323 349.105 66.2201 349.123 66.1078 349.118Z" fill="white"/>
<path d="M56.1167 380.762C50.985 382.374 44.5497 381.318 41.5749 376.911C38.0195 371.737 40.2594 363.757 35.5781 359.511C32.9589 357.192 29.1072 356.936 25.6347 356.24C22.1623 355.544 18.3106 353.654 17.7891 350.22C17.1017 345.673 22.8141 341.892 22.0201 337.356C21.226 332.821 14.9092 331.487 13.0485 327.335C11.3538 323.553 14.3522 318.971 18.3343 317.556C22.3163 316.141 26.7369 317.115 30.6953 318.554C34.6537 319.992 38.5054 321.894 42.7008 322.405C46.8962 322.915 52.1109 322.092 55.3108 325.026C59.601 328.947 57.1477 336.429 60.4543 341.161C62.6824 344.339 66.8659 345.441 70.0658 347.668C72.0548 349.082 73.6692 350.941 74.7743 353.09C75.8794 355.239 76.443 357.616 76.4182 360.022C76.3115 365.23 73.5146 369 69.4851 371.992C65.2186 375.24 61.4617 379.091 56.1167 380.762Z" fill="#BA68C8"/>
<path opacity="0.3" d="M56.1167 380.762C50.985 382.374 44.5497 381.318 41.5749 376.911C38.0195 371.737 40.2594 363.757 35.5781 359.511C32.9589 357.192 29.1072 356.936 25.6347 356.24C22.1623 355.544 18.3106 353.654 17.7891 350.22C17.1017 345.673 22.8141 341.892 22.0201 337.356C21.226 332.821 14.9092 331.487 13.0485 327.335C11.3538 323.553 14.3522 318.971 18.3343 317.556C22.3163 316.141 26.7369 317.115 30.6953 318.554C34.6537 319.992 38.5054 321.894 42.7008 322.405C46.8962 322.915 52.1109 322.092 55.3108 325.026C59.601 328.947 57.1477 336.429 60.4543 341.161C62.6824 344.339 66.8659 345.441 70.0658 347.668C72.0548 349.082 73.6692 350.941 74.7743 353.09C75.8794 355.239 76.443 357.616 76.4182 360.022C76.3115 365.23 73.5146 369 69.4851 371.992C65.2186 375.24 61.4617 379.091 56.1167 380.762Z" fill="black"/>
<path d="M53.8057 345.14L53.7464 345.058C52.9761 343.968 52.182 342.889 51.3761 341.857C43.7812 332.648 33.4804 325.943 21.866 322.648C21.76 322.607 21.6464 322.588 21.5325 322.593C21.4185 322.597 21.3068 322.625 21.2045 322.674C21.1022 322.724 21.0115 322.793 20.9383 322.879C20.8651 322.964 20.811 323.064 20.7795 323.171C20.7479 323.278 20.7396 323.391 20.7552 323.502C20.7707 323.612 20.8096 323.718 20.8695 323.813C20.9295 323.908 21.009 323.99 21.103 324.053C21.1971 324.116 21.3036 324.159 21.4157 324.179C32.7086 327.381 42.7244 333.9 50.108 342.855C50.3332 343.133 50.5347 343.446 50.7599 343.725C41.5631 340.419 32.1768 342.298 27.1755 346.242C27.0855 346.307 27.0106 346.39 26.9553 346.486C26.9001 346.581 26.8658 346.687 26.8546 346.796C26.8434 346.905 26.8557 347.015 26.8905 347.12C26.9254 347.224 26.9821 347.32 27.057 347.402C27.123 347.49 27.2072 347.565 27.3043 347.62C27.4014 347.675 27.5091 347.71 27.6207 347.722C27.7323 347.734 27.8452 347.723 27.9522 347.69C28.0592 347.657 28.158 347.602 28.2421 347.529C33.196 343.62 43.4238 341.88 52.6916 346.276C58.457 354.604 61.8298 364.295 62.4572 374.335C62.4693 374.536 62.5596 374.725 62.7094 374.863C62.8592 375.001 63.0574 375.078 63.2631 375.078C63.37 375.073 63.475 375.048 63.5718 375.004C63.6687 374.959 63.7555 374.896 63.8272 374.818C63.8989 374.741 63.9541 374.65 63.9895 374.551C64.0249 374.452 64.0399 374.347 64.0335 374.243C63.3759 363.815 59.8412 353.757 53.8057 345.14Z" fill="white"/>
<path d="M368.07 327.243C370.547 324.923 373.379 322.394 373.545 319.054C373.539 317.556 373.064 316.096 372.185 314.871C371.306 313.645 370.064 312.713 368.627 312.198C367.178 311.716 365.645 311.526 364.119 311.64C362.594 311.754 361.108 312.168 359.75 312.86C357.039 314.25 354.625 316.136 352.639 318.416C346.642 324.929 342.301 332.736 339.969 341.202C337.638 349.668 337.382 358.553 339.224 367.133C339.279 367.709 339.457 368.267 339.747 368.77C340.037 369.274 340.432 369.712 340.906 370.056C342.566 370.915 344.462 369.407 345.576 367.945C348.041 364.746 349.899 361.139 351.063 357.297C352.059 354.061 351.608 350.476 352.853 347.426C355.922 339.886 362.18 332.753 368.07 327.243Z" fill="#BA68C8"/>
<path d="M342.341 365.624C342.517 365.624 342.686 365.556 342.81 365.434C342.935 365.312 343.005 365.147 343.005 364.975C343.085 355.582 345.301 346.325 349.491 337.874C353.681 329.424 359.74 321.992 367.229 316.118C367.341 316.005 367.407 315.856 367.415 315.698C367.423 315.541 367.372 315.386 367.272 315.263C367.172 315.139 367.03 315.055 366.871 315.027C366.713 314.999 366.55 315.028 366.411 315.109C358.769 321.107 352.587 328.695 348.313 337.322C344.039 345.949 341.781 355.399 341.701 364.986C341.704 365.153 341.772 365.312 341.891 365.43C342.01 365.549 342.171 365.618 342.341 365.624Z" fill="white"/>
<path d="M350.459 391.294C354.631 392.605 359.857 391.746 362.311 388.174C365.143 383.975 363.377 377.502 367.17 374.103C369.303 372.213 372.42 372.016 375.24 371.447C378.061 370.879 381.166 369.359 381.605 366.575C382.162 362.875 377.528 359.813 378.18 356.136C378.831 352.459 383.939 351.38 385.456 348.016C386.831 344.943 384.39 341.219 381.166 340.082C377.943 338.946 374.352 339.723 371.14 340.883C367.928 342.043 364.799 343.597 361.398 344.003C357.997 344.409 353.766 343.748 351.17 346.137C347.686 349.316 349.677 355.417 346.987 359.233C345.185 361.808 341.796 362.713 339.2 364.499C337.583 365.646 336.271 367.156 335.374 368.902C334.477 370.648 334.021 372.579 334.045 374.533C334.128 378.755 336.415 381.806 339.662 384.241C343.087 386.816 346.181 389.948 350.459 391.294Z" fill="#BA68C8"/>
<path opacity="0.3" d="M350.459 391.294C354.631 392.605 359.857 391.746 362.311 388.174C365.143 383.975 363.377 377.502 367.17 374.103C369.303 372.213 372.42 372.016 375.24 371.447C378.061 370.879 381.166 369.359 381.605 366.575C382.162 362.875 377.528 359.813 378.18 356.136C378.831 352.459 383.939 351.38 385.456 348.016C386.831 344.943 384.39 341.219 381.166 340.082C377.943 338.946 374.352 339.723 371.14 340.883C367.928 342.043 364.799 343.597 361.398 344.003C357.997 344.409 353.766 343.748 351.17 346.137C347.686 349.316 349.677 355.417 346.987 359.233C345.185 361.808 341.796 362.713 339.2 364.499C337.583 365.646 336.271 367.156 335.374 368.902C334.477 370.648 334.021 372.579 334.045 374.533C334.128 378.755 336.415 381.806 339.662 384.241C343.087 386.816 346.181 389.948 350.459 391.294Z" fill="black"/>
<path d="M352.344 362.4V362.331C352.972 361.449 353.612 360.579 354.3 359.744C360.47 352.265 368.846 346.83 378.287 344.178C378.455 344.131 378.635 344.151 378.788 344.233C378.942 344.316 379.055 344.454 379.105 344.618C379.128 344.701 379.135 344.787 379.124 344.871C379.114 344.956 379.086 345.038 379.043 345.112C379 345.187 378.943 345.252 378.874 345.305C378.805 345.357 378.727 345.396 378.643 345.419C369.486 348.005 361.364 353.286 355.378 360.544C355.189 360.776 355.023 361.02 354.845 361.252C362.299 358.561 369.908 360.092 373.973 363.293C374.082 363.377 374.161 363.492 374.2 363.622C374.238 363.752 374.235 363.891 374.189 364.018C374.143 364.146 374.058 364.257 373.945 364.335C373.832 364.413 373.697 364.454 373.558 364.453C373.406 364.454 373.258 364.4 373.143 364.303C369.126 361.136 360.83 359.732 353.304 363.293C348.607 370.054 345.852 377.926 345.328 386.086C345.316 386.25 345.241 386.404 345.118 386.516C344.995 386.628 344.833 386.69 344.664 386.689C344.578 386.685 344.493 386.664 344.415 386.627C344.336 386.59 344.267 386.538 344.209 386.474C344.152 386.41 344.108 386.336 344.08 386.256C344.053 386.175 344.042 386.09 344.048 386.005C344.577 377.546 347.445 369.388 352.344 362.4Z" fill="white"/>
<path d="M257.011 76.4157C257.556 76.1026 257.994 76.4157 257.994 76.9725V83.4798C257.976 83.8127 257.877 84.1365 257.706 84.4248C257.535 84.7131 257.297 84.9577 257.011 85.1385C256.465 85.4517 256.027 85.1385 256.027 84.5933V78.0861C256.045 77.7516 256.144 77.4262 256.315 77.136C256.486 76.8458 256.724 76.5991 257.011 76.4157Z" fill="#BA68C8"/>
<path d="M244.364 88.7805C244.476 88.7062 244.608 88.6665 244.744 88.6665C244.879 88.6665 245.011 88.7062 245.123 88.7805L248.856 91.6572C249.212 91.9356 249.152 92.6663 248.738 93.2927C248.582 93.5443 248.366 93.7552 248.109 93.9075C247.998 93.9833 247.866 94.024 247.73 94.024C247.595 94.024 247.462 93.9833 247.351 93.9075L243.618 91.0308C243.262 90.7524 243.31 90.0217 243.736 89.3953C243.893 89.1449 244.108 88.9342 244.364 88.7805Z" fill="#BA68C8"/>
<path d="M239.98 97.1782C240.118 97.1181 240.269 97.0941 240.419 97.1086L245.444 97.5378C245.918 97.5378 246.084 98.1642 245.811 98.8485C245.644 99.2715 245.345 99.6325 244.958 99.8809C244.81 99.974 244.636 100.019 244.46 100.008L239.435 99.5909C238.973 99.5909 238.807 98.9645 239.079 98.2802C239.239 97.8212 239.558 97.4314 239.98 97.1782Z" fill="#BA68C8"/>
<path d="M245.04 113.349C245.384 113.151 245.716 113.163 245.894 113.418C246.01 113.707 246.038 114.023 245.975 114.328C245.912 114.633 245.76 114.913 245.538 115.135L240.537 121.225C240.403 121.392 240.238 121.533 240.051 121.642C239.707 121.839 239.375 121.828 239.186 121.573C239.073 121.283 239.046 120.968 239.109 120.664C239.172 120.36 239.322 120.08 239.541 119.856L244.543 113.766C244.681 113.598 244.85 113.457 245.04 113.349Z" fill="#BA68C8"/>
<path d="M243.369 109.115C243.843 108.86 244.258 108.999 244.341 109.486C244.362 109.817 244.301 110.148 244.162 110.451C244.024 110.755 243.813 111.02 243.547 111.226L237.846 115.576L237.68 115.692C237.206 115.958 236.791 115.819 236.708 115.32C236.684 114.989 236.744 114.656 236.882 114.353C237.021 114.049 237.234 113.784 237.502 113.58L243.191 109.231L243.369 109.115Z" fill="#BA68C8"/>
<path d="M269.751 74.4437C269.843 74.381 269.948 74.3392 270.059 74.3211C270.17 74.3031 270.283 74.3093 270.391 74.3393C270.806 74.5017 270.865 75.1629 270.521 75.8356L266.812 82.9229C266.644 83.262 266.381 83.5476 266.053 83.7464C265.96 83.8063 265.855 83.8465 265.745 83.8644C265.635 83.8824 265.522 83.8778 265.413 83.8508C264.999 83.6884 264.939 83.0157 265.295 82.3429L268.993 75.2672C269.157 74.9259 269.421 74.6395 269.751 74.4437Z" fill="#BA68C8"/>
<path d="M263.801 73.9095C263.907 73.8505 264.024 73.8112 264.144 73.7935C264.654 73.7123 264.915 74.1995 264.737 74.8838L262.77 82.1103C262.634 82.6272 262.304 83.0748 261.845 83.363C261.744 83.4252 261.631 83.4685 261.513 83.4906C261.004 83.5718 260.731 83.0847 260.921 82.4003L262.876 75.1738C263.014 74.6551 263.344 74.2047 263.801 73.9095Z" fill="#BA68C8"/>
<g opacity="0.2">
<path d="M257.011 76.4157C257.556 76.1026 257.994 76.4157 257.994 76.9725V83.4798C257.976 83.8127 257.877 84.1365 257.706 84.4248C257.535 84.7131 257.297 84.9577 257.011 85.1385C256.465 85.4517 256.027 85.1385 256.027 84.5933V78.0861C256.045 77.7516 256.144 77.4262 256.315 77.136C256.486 76.8458 256.724 76.5991 257.011 76.4157Z" fill="black"/>
<path d="M244.364 88.7805C244.476 88.7062 244.608 88.6665 244.744 88.6665C244.879 88.6665 245.011 88.7062 245.123 88.7805L248.856 91.6572C249.212 91.9356 249.152 92.6663 248.738 93.2927C248.582 93.5443 248.366 93.7552 248.109 93.9075C247.998 93.9833 247.866 94.024 247.73 94.024C247.595 94.024 247.462 93.9833 247.351 93.9075L243.618 91.0308C243.262 90.7524 243.31 90.0217 243.736 89.3953C243.893 89.1449 244.108 88.9342 244.364 88.7805Z" fill="black"/>
<path d="M239.98 97.1782C240.118 97.1181 240.269 97.0941 240.419 97.1086L245.444 97.5378C245.918 97.5378 246.084 98.1642 245.811 98.8485C245.644 99.2715 245.345 99.6325 244.958 99.8809C244.81 99.974 244.636 100.019 244.46 100.008L239.435 99.5909C238.973 99.5909 238.807 98.9645 239.079 98.2802C239.239 97.8212 239.558 97.4314 239.98 97.1782Z" fill="black"/>
<path d="M245.04 113.348C245.384 113.15 245.716 113.162 245.894 113.417C246.01 113.706 246.038 114.022 245.975 114.327C245.912 114.632 245.76 114.912 245.538 115.134L240.537 121.224C240.403 121.391 240.238 121.532 240.051 121.641C239.707 121.838 239.375 121.827 239.186 121.572C239.073 121.282 239.046 120.967 239.109 120.663C239.172 120.359 239.322 120.079 239.541 119.855L244.543 113.765C244.681 113.597 244.85 113.456 245.04 113.348Z" fill="black"/>
<path d="M243.369 109.114C243.843 108.859 244.258 108.998 244.341 109.485C244.362 109.816 244.301 110.147 244.162 110.451C244.024 110.754 243.813 111.019 243.547 111.225L237.846 115.575L237.68 115.691C237.206 115.957 236.791 115.818 236.708 115.319C236.684 114.988 236.744 114.656 236.882 114.352C237.021 114.048 237.234 113.783 237.502 113.58L243.191 109.23L243.369 109.114Z" fill="black"/>
<path d="M269.751 74.4437C269.843 74.381 269.948 74.3392 270.059 74.3211C270.17 74.3031 270.283 74.3093 270.391 74.3393C270.806 74.5017 270.865 75.1629 270.521 75.8356L266.812 82.9229C266.644 83.262 266.381 83.5476 266.053 83.7464C265.96 83.8063 265.855 83.8465 265.745 83.8644C265.635 83.8824 265.522 83.8778 265.413 83.8508C264.999 83.6884 264.939 83.0157 265.295 82.3429L268.993 75.2672C269.157 74.9259 269.421 74.6395 269.751 74.4437Z" fill="black"/>
<path d="M263.801 73.9095C263.907 73.8505 264.024 73.8112 264.144 73.7935C264.654 73.7123 264.915 74.1995 264.737 74.8838L262.77 82.1103C262.634 82.6272 262.304 83.0748 261.845 83.363C261.744 83.4252 261.631 83.4685 261.513 83.4906C261.004 83.5718 260.731 83.0847 260.921 82.4003L262.876 75.1738C263.014 74.6551 263.344 74.2047 263.801 73.9095Z" fill="black"/>
</g>
<path d="M260.139 400.574C261.619 402.003 263.389 403.112 265.334 403.829C267.28 404.547 269.358 404.856 271.433 404.738C275.568 404.459 279.615 403.432 283.368 401.71C287.196 400.133 291.984 395.725 296.12 395.806C300.159 395.776 304.192 395.501 308.196 394.983C308.342 389.462 307.765 383.946 306.478 378.569L287.196 378.059C281.993 385.216 271.872 391.166 264.216 393.394C263.03 393.742 261.963 394.399 261.129 395.293C260.294 396.188 259.723 397.287 259.475 398.474C259.469 398.516 259.469 398.559 259.475 398.602C259.613 399.283 259.836 399.945 260.139 400.574Z" fill="#455A64"/>
<path d="M296.12 395.806C291.984 395.725 287.196 400.133 283.368 401.71C279.615 403.432 275.569 404.459 271.434 404.738C269.358 404.856 267.28 404.546 265.335 403.829C263.389 403.112 261.619 402.003 260.139 400.573C259.836 399.945 259.613 399.283 259.476 398.601C259.47 398.559 259.47 398.516 259.476 398.474C259.292 399.323 259.292 400.2 259.476 401.049C259.613 401.73 259.836 402.393 260.139 403.021C261.617 404.453 263.387 405.563 265.333 406.281C267.279 406.998 269.358 407.306 271.434 407.185C275.568 406.91 279.614 405.887 283.368 404.169C287.196 402.592 291.984 398.184 296.12 398.265C300.082 398.294 304.042 398.061 307.972 397.569C308.067 396.711 308.126 395.841 308.161 394.982C304.169 395.5 300.147 395.775 296.12 395.806Z" fill="#37474F"/>
<path d="M346.785 401.768C346.799 403.739 346.605 405.706 346.204 407.638C345.594 411.047 343.684 414.103 340.859 416.186C338.286 417.682 335.354 418.483 332.361 418.506C329.744 418.781 327.098 418.504 324.599 417.694C322.689 417.004 321.081 415.689 320.048 413.971C320.048 413.971 320.048 414.041 320.048 414.075C320.409 415.331 321.073 416.483 321.985 417.434C322.897 418.385 324.029 419.107 325.286 419.539C327.789 420.35 330.441 420.623 333.061 420.339C336.045 420.338 338.974 419.557 341.546 418.077C344.379 415.996 346.291 412.933 346.891 409.517C347.292 407.589 347.487 405.626 347.472 403.659C347.479 402.319 347.76 400.994 348.3 399.763C348.839 398.532 349.626 397.419 350.613 396.491C351.094 396.045 351.549 395.572 351.976 395.075C352.283 394.724 352.515 394.317 352.66 393.877C352.804 393.436 352.858 392.973 352.817 392.512C352.817 392.152 352.746 391.793 352.699 391.445C351.999 392.28 350.328 394.252 349.902 394.646C348.926 395.572 348.148 396.679 347.613 397.901C347.078 399.124 346.797 400.438 346.785 401.768Z" fill="#37474F"/>
<path d="M332.042 381.295C332.665 385.337 332.128 389.47 330.489 393.231C328.87 396.933 326.762 400.411 324.22 403.577C322.971 405.074 321.868 406.682 320.925 408.38C320.011 410.081 319.687 412.027 320.001 413.924C321.033 415.642 322.641 416.957 324.552 417.648C327.05 418.457 329.697 418.734 332.314 418.46C335.307 418.436 338.239 417.636 340.812 416.14C343.636 414.056 345.547 411.001 346.157 407.591C346.558 405.659 346.752 403.692 346.737 401.722C346.745 400.383 347.025 399.059 347.562 397.828C348.1 396.597 348.883 395.484 349.866 394.553C350.293 394.159 351.964 392.233 352.663 391.352C352.283 388.426 351.304 385.605 349.783 383.058L332.042 381.295Z" fill="#455A64"/>
<path d="M280.311 208.463L281.768 308.288L286.509 378.163C298.36 385.703 307.012 379.543 307.012 379.543C311.527 346.439 312.132 326.082 309.678 312.267L311.93 258.399L318.638 314.366L330.016 382.93C342.211 390.865 350.827 382.93 350.827 382.93C350.827 357.551 353.078 329.179 346.086 310.875C351.004 254.328 342.803 209.507 342.803 209.507L280.311 208.463Z" fill="#37474F"/>
<path d="M309.394 237.868L311.882 258.445L310.828 283.674L306.253 242.194C295.587 238.03 294.259 232.172 294.259 232.172C298.721 235.311 303.933 237.272 309.394 237.868Z" fill="#263238"/>
<path d="M289.329 93.0836L286.615 91.6917H286.556H286.449C286.226 91.5915 285.981 91.5454 285.736 91.5576C285.49 91.5697 285.251 91.6396 285.039 91.7613L260.755 105.483C260.279 105.753 259.884 106.14 259.609 106.606C259.334 107.072 259.19 107.601 259.191 108.14V119.646C259.188 119.887 259.245 120.124 259.356 120.338C259.468 120.552 259.631 120.737 259.831 120.876C259.923 120.937 260.023 120.988 260.127 121.027L262.758 122.395L262.628 120.296L285.774 107.223C286.251 106.955 286.649 106.568 286.925 106.102C287.202 105.635 287.348 105.106 287.35 104.567V94.5451L289.329 93.0836Z" fill="#455A64"/>
<path d="M288.559 108.58L264.276 122.302C264.037 122.438 263.766 122.511 263.489 122.512C263.213 122.514 262.941 122.444 262.701 122.31C262.461 122.176 262.261 121.982 262.121 121.749C261.982 121.516 261.907 121.25 261.905 120.98V109.462C261.908 108.924 262.054 108.396 262.328 107.931C262.602 107.465 262.996 107.077 263.47 106.805L287.824 93.0831C288.063 92.9425 288.336 92.867 288.615 92.8643C288.894 92.8617 289.169 92.932 289.41 93.068C289.652 93.2041 289.852 93.4009 289.99 93.6381C290.128 93.8753 290.199 94.1442 290.195 94.4171V105.924C290.19 106.469 290.035 107.003 289.748 107.47C289.46 107.938 289.05 108.321 288.559 108.58Z" fill="#455A64"/>
<path d="M263.481 109.462C263.483 109.194 263.556 108.931 263.693 108.699C263.83 108.467 264.027 108.275 264.263 108.14L288.559 94.4175V105.924C288.559 106.194 288.487 106.459 288.35 106.693C288.212 106.927 288.015 107.122 287.776 107.258L263.493 120.969L263.481 109.462Z" fill="#BA68C8"/>
<path d="M278 126.479C278.326 125.725 278.875 125.083 279.576 124.635C281.636 123.372 283.207 121.475 284.044 119.241C284.725 116.856 285.099 114.398 285.158 111.922C285.226 109.432 286.125 107.033 287.718 105.09C283.404 103.385 281.65 107.224 280.086 113.372L265.639 121.492L265.84 121.956C266.05 122.407 266.158 122.898 266.158 123.394C266.158 123.89 266.05 124.38 265.84 124.832L261.633 133.195C263.671 134.621 266.047 135.513 268.536 135.787C271.025 136.061 273.544 135.708 275.855 134.761C276.399 131.961 277.115 129.195 278 126.479Z" fill="#FFA8A7"/>
<path d="M275.084 143.414C275.842 140.41 276.755 136.454 277.347 132.974C274.675 133.887 271.825 134.193 269.014 133.867C266.202 133.541 263.504 132.594 261.123 131.095C259.41 133.932 257.874 136.868 256.524 139.888C259.122 141.853 262.153 143.195 265.376 143.808C268.599 144.42 271.924 144.285 275.084 143.414Z" fill="#E0E0E0"/>
<path d="M273.744 148.425C273.744 148.425 274.337 146.36 275.084 143.414C271.921 144.28 268.595 144.41 265.372 143.791C262.149 143.173 259.119 141.824 256.524 139.853C252.438 149.118 249.913 158.97 249.046 169.025C248.656 171.962 248.805 174.944 249.484 177.829C249.839 179.272 250.507 180.623 251.441 181.792C252.375 182.961 253.555 183.919 254.9 184.603C258.729 186.32 263.315 184.835 266.752 182.504C273.282 178.119 277.418 171.125 281.27 164.374L291.782 127.639C285.56 128.311 280.464 131.733 273.744 148.425Z" fill="#F0F0F0"/>
<path opacity="0.1" d="M273.744 148.424C271.279 156.962 267.427 170.591 267.427 170.591C276.197 161.868 273.744 148.424 273.744 148.424Z" fill="black"/>
<path opacity="0.1" d="M290.266 133.067C287.064 135.203 284.381 138.003 282.409 141.268C278.972 147.067 277.964 153.818 277.028 160.43C276.364 165.07 275.705 169.71 275.049 174.349C277.327 171.147 279.416 167.821 281.306 164.385L290.266 133.067Z" fill="black"/>
<path d="M303.029 126.513L291.817 127.673C282.632 135.596 277.892 152.218 279.871 170.591C281.035 183.188 281.181 195.855 280.31 208.475C305.198 226.268 338.891 213.347 342.838 209.484L339.65 186.923C339.452 184.389 339.883 181.846 340.906 179.511C343.276 174.164 347.448 163.655 348.017 155.512C348.372 148.257 346.826 141.034 343.525 134.528L327.229 127.569L303.029 126.513Z" fill="#F0F0F0"/>
<path opacity="0.1" d="M340.906 179.465C342.98 174.756 346.477 166.045 347.662 158.47C345.351 159.839 342.921 161.184 341.949 163.435C338.878 170.707 338.074 178.706 339.638 186.425C339.515 184.041 339.948 181.661 340.906 179.465Z" fill="black"/>
<path d="M299.924 142.509C290.538 163.631 290.692 185.427 290.692 185.427L295.302 195.135L302.543 185.856C301.982 171.627 302.271 157.378 303.409 143.182L299.924 142.509Z" fill="#BA68C8"/>
<path d="M299.522 134.529C299.325 137.195 299.46 139.875 299.925 142.509C301.004 143.031 302.211 143.248 303.409 143.136C305.614 141.226 307.501 138.991 309.003 136.512L303.409 134.529H299.522Z" fill="#BA68C8"/>
<path d="M303.408 134.529C308.232 136.268 312.522 144.678 312.522 144.678C325.203 134.146 327.182 127.569 327.182 127.569C323.923 123.033 320.368 122.303 320.368 122.303L303.408 134.529Z" fill="#E0E0E0"/>
<path d="M303.41 134.528C299.724 134.632 296.465 139.655 296.465 139.655C295.872 130.862 303.41 124.088 303.41 124.088V134.528Z" fill="#E0E0E0"/>
<path d="M320.664 112.455L303.408 118.487V124.739C307.29 124.201 311.016 122.877 314.347 120.853C317.328 118.799 319.546 115.851 320.664 112.455Z" fill="#F28F8F"/>
<path d="M320.664 112.455C319.546 115.852 317.328 118.799 314.347 120.853C311.016 122.878 307.29 124.201 303.408 124.739V134.529C303.408 134.529 321.648 126.514 321.648 122.744V112.107L320.664 112.455Z" fill="#FFA8A7"/>
<path d="M287.421 87.6904C285.503 87.7598 283.602 87.3091 281.929 86.388C280.256 85.4669 278.875 84.1113 277.94 82.4707C277.817 82.2362 277.763 81.9724 277.786 81.7097C277.809 81.447 277.908 81.196 278.07 80.9853C278.232 80.7747 278.451 80.613 278.703 80.5187C278.954 80.4245 279.228 80.4015 279.492 80.4524C280.813 80.6844 282.165 80.6844 283.486 80.4524C281.966 78.5059 280.854 76.2841 280.215 73.915C279.576 71.5458 279.423 69.0764 279.765 66.6491C279.807 66.3782 279.914 66.1209 280.077 65.8979C280.239 65.6748 280.453 65.4922 280.701 65.3647C280.949 65.2372 281.224 65.1684 281.504 65.1638C281.784 65.1592 282.061 65.219 282.313 65.3383C287.806 67.9943 293.915 69.1942 300.031 68.8182C303.29 68.5978 306.502 67.9134 309.761 67.6582C313.022 67.2726 316.329 67.7659 319.325 69.085C320.807 69.7655 322.074 70.8253 322.992 72.1524C323.91 73.4796 324.445 75.0247 324.54 76.6246C324.913 76.1096 325.395 75.6794 325.953 75.3632C326.512 75.0469 327.133 74.8521 327.775 74.7919C328.446 74.7145 329.126 74.7712 329.774 74.9586C330.421 75.146 331.024 75.4602 331.544 75.8822C329.659 76.903 327.822 77.9237 325.938 78.9329C327.87 78.2601 330.299 79.7332 331.259 81.508C332.074 83.3566 332.427 85.3685 332.29 87.3773C332.406 90.0389 332.283 92.7054 331.923 95.3461C331.568 98.0041 330.505 100.524 328.842 102.654C327.38 104.404 325.427 105.698 323.224 106.377C320.23 107.186 317.056 107.085 314.122 106.087C311.191 105.096 308.403 103.739 305.826 102.051C299.259 97.8199 293.098 93.0134 287.421 87.6904Z" fill="#263238"/>
<path d="M287.007 82.3765C285.113 93.4121 286.342 104.745 290.562 115.145C291.534 117.546 292.814 120.028 295.101 121.316C297.389 122.603 300.482 122.371 303.219 121.965C307.659 121.495 311.99 120.319 316.043 118.486C320.125 116.604 323.306 113.249 324.919 109.125C326.371 109.415 327.877 109.288 329.257 108.759C330.636 108.23 331.83 107.322 332.694 106.144C334.399 103.696 335.282 100.789 335.218 97.8269C335.218 95.9478 334.863 93.7323 333.133 92.9088C331.402 92.0852 329.577 93.0016 328.214 94.0687C325.954 95.8973 324.303 98.345 323.474 101.098C322.205 96.5278 320.226 92.1084 318.958 87.5266C318.46 85.7171 317.844 83.7568 316.232 82.7477C314.277 81.5181 311.717 82.2257 309.453 82.7477C302.061 84.4937 294.335 84.3659 287.007 82.3765Z" fill="#FFA8A7"/>
<path d="M300.647 96.2734L295.171 105.298L301.702 106.493L300.647 96.2734Z" fill="#F28F8F"/>
<path d="M307.971 109.602L303.005 111.922C303.432 112.474 304.03 112.876 304.709 113.066C305.389 113.257 306.114 113.225 306.774 112.977C307.332 112.628 307.753 112.105 307.97 111.493C308.187 110.88 308.187 110.215 307.971 109.602Z" fill="#F28F8F"/>
<path opacity="0.3" d="M307.971 109.602L303.005 111.922C303.432 112.474 304.03 112.876 304.709 113.066C305.389 113.257 306.114 113.225 306.774 112.977C307.332 112.628 307.753 112.105 307.97 111.493C308.187 110.88 308.187 110.215 307.971 109.602Z" fill="black"/>
<path d="M305.068 113.163C305.648 113.278 306.249 113.226 306.799 113.012C307.251 112.758 307.617 112.38 307.851 111.924C308.085 111.468 308.176 110.955 308.114 110.448C307.409 110.448 306.724 110.681 306.171 111.109C305.545 111.628 305.15 112.364 305.068 113.163Z" fill="#F28F8F"/>
<path d="M310.105 96.6331C310.13 96.873 310.106 97.1154 310.035 97.3463C309.964 97.5773 309.848 97.7924 309.692 97.9793C309.536 98.1661 309.344 98.3212 309.128 98.4355C308.911 98.5498 308.673 98.6212 308.428 98.6456C308.183 98.67 307.935 98.6468 307.699 98.5776C307.463 98.5083 307.243 98.3941 307.052 98.2417C306.861 98.0893 306.703 97.9016 306.586 97.6893C306.469 97.477 306.396 97.2442 306.371 97.0043C306.345 96.7649 306.368 96.5228 306.438 96.292C306.508 96.0612 306.624 95.8463 306.779 95.6597C306.935 95.4731 307.126 95.3185 307.343 95.2048C307.56 95.0912 307.798 95.0207 308.042 94.9976C308.537 94.9488 309.031 95.0933 309.418 95.3997C309.804 95.706 310.051 96.1494 310.105 96.6331Z" fill="#263238"/>
<path d="M294.39 97.5952C294.426 97.9553 294.351 98.3175 294.177 98.6363C294.002 98.955 293.735 99.2161 293.409 99.3867C293.083 99.5572 292.713 99.6296 292.346 99.5947C291.978 99.5598 291.629 99.4191 291.342 99.1904C291.056 98.9618 290.845 98.6553 290.737 98.3096C290.628 97.9639 290.626 97.5945 290.732 97.2479C290.837 96.9012 291.045 96.5928 291.329 96.3615C291.613 96.1303 291.961 95.9864 292.328 95.9481C292.825 95.8995 293.321 96.0456 293.707 96.3544C294.094 96.6632 294.339 97.1094 294.39 97.5952Z" fill="#263238"/>
<path d="M291.818 90.5093L287.978 93.7107C287.747 93.229 287.672 92.6898 287.763 92.1653C287.854 91.6408 288.107 91.1561 288.487 90.7761C288.961 90.4307 289.525 90.2225 290.114 90.1753C290.702 90.1282 291.293 90.2439 291.818 90.5093Z" fill="#263238"/>
<path d="M307.77 88.7106C309.239 89.5109 310.709 90.3113 312.19 91.1C312.318 90.5814 312.28 90.037 312.084 89.5395C311.887 89.0421 311.539 88.6153 311.088 88.3162C310.551 88.0761 309.958 87.986 309.372 88.0556C308.786 88.1252 308.232 88.3518 307.77 88.7106Z" fill="#263238"/>
<path d="M381.592 174.164L387.518 171.287C389.374 170.389 390.919 168.977 391.962 167.227L393.823 164.107C395.108 161.968 397.003 160.243 399.275 159.142C402.691 157.5 405.878 155.433 408.756 152.995C409.359 153.936 409.613 155.051 409.475 156.154C409.337 157.257 408.815 158.279 407.997 159.05C406.775 160.146 405.476 161.158 404.11 162.077L406.966 162.785C409.029 163.302 411.205 163.172 413.188 162.413L421.342 159.316C421.576 159.229 421.829 159.204 422.076 159.244C422.324 159.283 422.556 159.386 422.749 159.541C422.943 159.696 423.091 159.899 423.179 160.128C423.267 160.358 423.291 160.606 423.25 160.847C422.498 164.386 421.131 167.772 419.209 170.858C418.325 172.334 417.126 173.607 415.694 174.59C414.263 175.572 412.632 176.242 410.913 176.553C406.753 177.319 402.723 177.922 400.436 178.235C399.126 178.427 397.854 178.818 396.667 179.395L387.921 183.652L381.592 174.164Z" fill="#FFA8A7"/>
<path d="M375.928 183.13C374.893 180.738 374.532 178.118 374.885 175.544L363.674 180.74C361.65 172.757 360.068 164.672 358.933 156.521C357.606 145.513 357.902 138.113 343.432 134.482L341.903 163.481C341.903 163.481 343.681 198.859 354.051 202.779C362.631 206.016 368.687 198.024 381.783 189.742C379.182 188.181 377.137 185.872 375.928 183.13Z" fill="#F0F0F0"/>
<path opacity="0.1" d="M356.219 187.991C356.61 186.344 359.371 182.574 363.721 180.741C363.721 180.741 363.389 179.454 362.903 177.366C360.651 178.456 355.105 181.785 356.219 187.991Z" fill="black"/>
<path d="M384.911 170.881L374.884 175.521C374.491 178.293 374.94 181.118 376.175 183.642C377.41 186.167 379.376 188.28 381.829 189.719C384.777 187.852 387.832 186.152 390.979 184.627C390.979 184.627 385.645 180.451 384.911 170.881Z" fill="#E0E0E0"/>
<path d="M425.964 29.1828C425.965 28.9205 425.894 28.6629 425.758 28.4366C425.623 28.2102 425.428 28.0234 425.194 27.8953L418.344 24.1719H418.285C418.061 24.0468 417.808 23.981 417.55 23.981C417.292 23.981 417.039 24.0468 416.815 24.1719L369.978 50.6418C369.284 51.0381 368.708 51.6053 368.306 52.2869C367.905 52.9685 367.693 53.741 367.691 54.5276V71.5672L351.478 87.9804C350.032 89.4535 349.878 91.669 351.004 92.017L357.463 95.4968C357.577 95.6099 357.718 95.6943 357.873 95.7428C358.027 95.7913 358.192 95.8024 358.352 95.7752L367.762 94.6152V107.119C367.759 107.378 367.826 107.633 367.958 107.857C368.089 108.081 368.279 108.267 368.509 108.395L375.311 112.096H375.406H375.477C375.698 112.198 375.94 112.245 376.184 112.235C376.427 112.225 376.665 112.157 376.876 112.038L423.713 85.5677C424.411 85.1758 424.991 84.6097 425.392 83.9271C425.794 83.2444 426.004 82.4697 426 81.6819L425.964 29.1828ZM376.105 54.9568C376.158 54.9071 376.213 54.8606 376.271 54.8176C376.215 54.8418 376.159 54.8689 376.105 54.8988V54.9568Z" fill="#9A58A6"/>
<path d="M409.895 45.6773C409.687 45.78 409.501 45.9219 409.349 46.0949C409.229 46.2355 409.137 46.3967 409.077 46.5705C408.568 47.5752 408.132 48.614 407.773 49.6791C407.382 50.6187 407.015 51.5583 406.683 52.5094C406.594 52.6785 406.526 52.8577 406.481 53.043C406.369 53.2689 406.281 53.5062 406.221 53.7505C406.007 54.2841 405.794 54.8061 405.593 55.3397C405.51 55.4905 405.438 55.6297 405.367 55.7804C405.155 56.2219 404.981 56.6797 404.846 57.1492C404.757 57.3502 404.723 57.5705 404.748 57.7883C404.773 58.0061 404.856 58.2137 404.988 58.3903C405.5 58.8649 406.129 59.2007 406.813 59.3647L406.991 59.4227L407.56 59.5735L408.544 60.049L408.733 60.165C408.792 60.2462 408.864 60.3158 408.923 60.3854C408.987 60.4709 409.039 60.5646 409.077 60.6638C409.114 60.8202 409.114 60.983 409.077 61.1394C409.018 61.3714 408.958 61.615 408.911 61.8469C408.864 62.0789 408.615 62.6357 408.472 63.0069L408.259 63.5173L407.524 65.2108C407.275 65.756 407.098 66.2083 406.92 66.6607C406.748 66.9834 406.597 67.3166 406.47 67.6583L406.221 68.157C406.019 68.5746 405.806 68.9922 405.604 69.4214L405.427 69.7926L404.763 70.9525L404.514 71.4165L403.744 72.7388L403.542 73.0752L402.784 74.4903L402.547 74.8383L400.769 77.367L400.058 78.3065L399.856 78.5733L397.688 81.2644L396.858 82.03C396.701 82.2145 396.512 82.3714 396.301 82.4939C396.168 82.5751 396.014 82.6182 395.857 82.6182C395.699 82.6182 395.546 82.5751 395.412 82.4939L394.879 82.2271C394.879 82.1459 394.808 82.1344 394.748 82.1228C394.012 81.4895 393.219 80.9227 392.378 80.4292C392.221 80.3312 392.038 80.2792 391.851 80.2792C391.664 80.2792 391.481 80.3312 391.323 80.4292C391.226 80.4863 391.135 80.5523 391.051 80.6264C390.696 80.9156 390.388 81.2558 390.138 81.6356C390.044 81.6914 389.973 81.7776 389.937 81.8792C389.285 82.7723 388.562 83.5727 387.886 84.431C387.211 85.2894 386.642 85.8578 386.038 86.6001C385.694 86.9829 385.362 87.3773 385.042 87.7601C384.722 88.1429 384.319 88.63 383.976 89.1056C383.837 89.26 383.714 89.427 383.608 89.6044C383.434 89.7966 383.305 90.0242 383.231 90.2709C383.157 90.5176 383.14 90.7772 383.181 91.0311C383.184 91.3421 383.211 91.6524 383.264 91.9591C383.289 92.3556 383.372 92.7465 383.513 93.119C383.549 93.3638 383.621 93.6022 383.727 93.8266C383.762 93.8986 383.801 93.9683 383.845 94.0354C383.833 94.0888 383.833 94.1443 383.845 94.1978C383.882 94.264 383.925 94.3262 383.976 94.3834C384.002 94.4672 384.047 94.5446 384.106 94.6105C384.165 94.6764 384.238 94.7295 384.319 94.7661C384.429 94.9123 384.576 95.0282 384.746 95.1025L385.042 95.2185H385.244L385.492 95.3113H385.611C385.748 95.3405 385.889 95.3405 386.026 95.3113C386.056 95.3286 386.091 95.3377 386.127 95.3377C386.162 95.3377 386.197 95.3286 386.227 95.3113C386.399 95.3521 386.577 95.3521 386.749 95.3113C386.936 95.3515 387.13 95.3515 387.318 95.3113C387.506 95.3395 387.698 95.3395 387.886 95.3113H388.23C388.5 95.2851 388.766 95.2307 389.024 95.1489H389.155L389.439 95.0793C389.512 95.0675 389.58 95.0398 389.64 94.9981L389.937 94.8937C390.234 94.809 390.523 94.7004 390.802 94.5689L391.039 94.4529L391.229 94.3486C391.397 94.2579 391.559 94.1572 391.714 94.047C391.907 93.9369 392.093 93.8169 392.272 93.6874C392.485 93.5469 392.69 93.3959 392.888 93.235C393.062 93.119 393.239 92.9914 393.421 92.8522L393.634 92.6666L393.741 92.5738L394.037 92.3302C394.344 92.0709 394.637 91.796 394.914 91.5067C395.145 91.3238 395.359 91.122 395.554 90.9035C395.628 90.852 395.689 90.7845 395.732 90.7063C396.156 90.3485 396.552 89.9608 396.917 89.5464C397.235 89.2741 397.536 88.9836 397.818 88.6764C398.057 88.4695 398.279 88.2446 398.482 88.0037L398.849 87.6325C398.96 87.5516 399.053 87.4489 399.122 87.3309C399.179 87.2994 399.225 87.2506 399.252 87.1917L399.453 87.0061C399.563 86.8877 399.666 86.7638 399.762 86.6349C399.975 86.4256 400.177 86.2049 400.366 85.9738L400.556 85.7418L400.745 85.5098C401.122 85.1048 401.474 84.6788 401.8 84.2338C401.976 84.0653 402.127 83.874 402.25 83.6655C402.471 83.4216 402.673 83.1618 402.855 82.8883C403.16 82.5193 403.441 82.1319 403.696 81.7284C403.862 81.5196 403.933 81.4152 404.016 81.3224L404.23 81.0208C404.384 80.812 404.514 80.6032 404.656 80.3828L404.929 80.0233C405.015 79.8999 405.094 79.7721 405.166 79.6405C405.344 79.4249 405.499 79.1916 405.628 78.9445C405.854 78.6486 406.06 78.3387 406.244 78.0166C406.314 77.9283 406.378 77.8353 406.434 77.7382C406.466 77.6944 406.494 77.6478 406.517 77.599L406.6 77.4482L406.801 77.1698C406.991 76.8798 407.169 76.5898 407.335 76.2766L407.572 75.8939L408.318 74.6295C408.424 74.5085 408.508 74.3713 408.567 74.2235C408.757 73.9219 408.935 73.6204 409.112 73.2956C409.112 73.1912 409.219 73.0868 409.278 72.9824C409.378 72.8411 409.462 72.6894 409.527 72.53L410.167 71.3701C410.274 71.1497 410.392 70.9409 410.499 70.7205C410.681 70.4295 410.836 70.1227 410.961 69.8042C411.471 68.8878 411.921 67.9598 412.336 67.0087L412.526 66.5795C412.703 66.2473 412.853 65.9021 412.976 65.5472C413.463 64.4829 413.894 63.395 414.268 62.2877L414.374 62.0093C414.621 61.3837 414.831 60.7447 415.003 60.0954C415.263 59.3067 415.477 58.5295 415.678 57.7755C415.749 57.5204 415.82 57.2652 415.88 56.9984C415.934 56.9247 415.96 56.8339 415.951 56.7432C415.954 56.6814 415.954 56.6194 415.951 56.5576L416.046 56.2096C416.338 55.2663 416.567 54.3054 416.733 53.333V53.1822C416.754 53.0984 416.754 53.0107 416.733 52.927C416.733 52.927 416.733 52.8226 416.733 52.7762C416.733 52.7298 416.733 52.5906 416.733 52.5094C416.727 52.4128 416.727 52.316 416.733 52.2194C416.808 51.8099 416.844 51.3944 416.84 50.9783C416.84 50.8159 416.84 50.6419 416.84 50.4679C416.87 50.3499 416.87 50.2263 416.84 50.1083C416.84 50.0503 416.84 49.9807 416.84 49.9111C416.836 49.5477 416.772 49.1873 416.65 48.844C416.556 48.3287 416.388 47.8289 416.152 47.3593C415.877 46.5981 415.441 45.9024 414.872 45.3178C414.723 45.1015 414.513 44.9322 414.268 44.8306C414.268 44.8306 414.209 44.7378 414.137 44.7494C413.94 44.6031 413.697 44.5292 413.45 44.5406C412.705 44.512 411.961 44.6385 411.269 44.9118L411.021 45.0162C410.806 45.0683 410.599 45.1462 410.404 45.2482L410.286 45.3178C410.226 45.4917 410.049 45.5613 409.895 45.6773Z" fill="white"/>
<path opacity="0.1" d="M374.708 110.913C374.706 111.167 374.771 111.417 374.898 111.639C375.025 111.861 375.208 112.046 375.431 112.177L368.628 108.477C368.399 108.349 368.209 108.163 368.077 107.939C367.946 107.714 367.878 107.46 367.881 107.201V94.6971L374.72 93.8735L374.708 110.913Z" fill="black"/>
<path opacity="0.2" d="M369.978 50.6418L416.827 24.1719C417.051 24.0468 417.304 23.981 417.562 23.981C417.819 23.981 418.073 24.0468 418.296 24.1719H418.356L425.206 27.8953C424.975 27.7672 424.713 27.6999 424.447 27.6999C424.182 27.6999 423.92 27.7672 423.689 27.8953L376.84 54.3652C375.97 54.8533 375.287 55.6071 374.896 56.5111L368.094 52.6717C368.488 51.8179 369.147 51.1076 369.978 50.6418Z" fill="white"/>
<path opacity="0.1" d="M367.739 71.5905V54.551C367.738 53.919 367.876 53.2942 368.142 52.7183L374.897 56.5113C374.671 57.0606 374.554 57.6473 374.553 58.2396V75.2792L367.739 71.5905Z" fill="white"/>
<path opacity="0.05" d="M351.526 87.9798L367.739 71.5898L374.601 75.3249L358.388 91.7265C357.132 93.0024 356.848 94.8235 357.511 95.5311L351.052 92.0512C349.926 91.6685 350.08 89.453 351.526 87.9798Z" fill="white"/>
<path d="M202.364 19.1729C201.464 15.8322 195.076 9.46414 188.723 9.59173C188.108 9.61375 187.502 9.74339 186.934 9.97452L63.4771 84.6865C61.3819 85.9856 59.731 87.8679 58.7366 90.0918C57.9463 91.8293 57.5423 93.7113 57.5514 95.6131V379.73C57.5514 386.968 65.3971 393.869 72.7687 390.552C72.931 390.492 73.0893 390.422 73.2427 390.343L196.711 315.492C198.563 314.313 200.078 312.693 201.115 310.784C202.151 308.874 202.675 306.739 202.637 304.577V20.5532C202.65 20.0791 202.557 19.608 202.364 19.1729Z" fill="#37474F"/>
<path d="M74.735 125.644C74.7186 124.56 74.9841 123.49 75.5066 122.534C76.029 121.578 76.7913 120.768 77.7216 120.18L192.361 50.7925C192.826 50.536 193.355 50.4075 193.889 50.4209C194.423 50.4342 194.944 50.5887 195.396 50.8681C195.848 51.1475 196.214 51.5414 196.456 52.008C196.698 52.4745 196.806 52.9964 196.769 53.5183V282.63C196.785 283.712 196.519 284.781 195.996 285.734C195.474 286.688 194.712 287.496 193.783 288.082L79.1437 357.586C78.6779 357.842 78.1498 357.971 77.6155 357.958C77.0811 357.944 76.5604 357.79 76.1085 357.51C75.6566 357.231 75.2903 356.837 75.0485 356.37C74.8067 355.904 74.6984 355.382 74.735 354.86V125.644Z" fill="#7A67B8"/>
<path d="M57.5034 95.6127V379.729C57.5034 386.967 65.3491 393.869 72.7207 390.552C72.2573 390.706 71.7622 390.747 71.2789 390.671C70.7955 390.594 70.3388 390.403 69.949 390.113C69.5591 389.823 69.2481 389.444 69.0432 389.008C68.8383 388.573 68.7459 388.095 68.7741 387.617V103.466C68.7744 101.009 69.4675 98.6011 70.777 96.5059L58.736 90.1494C57.9375 91.8656 57.5175 93.7271 57.5034 95.6127Z" fill="#263238"/>
<path d="M188.735 9.58001C188.12 9.60203 187.514 9.73167 186.945 9.96279L63.4769 84.6863C61.3816 85.9855 59.7308 87.8678 58.7363 90.0917L70.8248 96.5178C71.809 94.9036 73.1694 93.5402 74.795 92.5392L198.263 17.8156C198.616 17.607 199.011 17.4762 199.421 17.4324C199.831 17.3886 200.245 17.4329 200.636 17.5621C201.026 17.6913 201.383 17.9024 201.682 18.1806C201.98 18.4588 202.213 18.7974 202.364 19.1727C201.475 15.8205 195.087 9.45242 188.735 9.58001Z" fill="#455A64"/>
<path d="M150.963 64.7231C151.84 64.1896 152.552 64.6071 152.552 65.6627C152.53 66.2329 152.377 66.7911 152.104 67.2953C151.831 67.7995 151.445 68.2367 150.975 68.5742L126.751 83.4562C125.886 83.9898 125.187 83.5374 125.187 82.4819C125.206 81.9186 125.356 81.3671 125.625 80.8688C125.894 80.3705 126.275 79.9385 126.739 79.6052L150.963 64.7231Z" fill="#263238"/>
<path d="M120.529 83.4224C121.395 82.8888 122.094 83.318 122.094 84.3735C122.075 84.9414 121.924 85.4975 121.653 85.9999C121.382 86.5023 120.998 86.9378 120.529 87.2734C119.664 87.807 118.953 87.3778 118.941 86.3107C118.966 85.7431 119.121 85.1883 119.397 84.688C119.672 84.1878 120.059 83.755 120.529 83.4224Z" fill="#263238"/>
<path d="M136.03 62.5656C137.761 61.4985 139.159 62.3453 139.159 64.4679C139.122 65.6013 138.824 66.7117 138.286 67.7161C137.748 68.7205 136.985 69.5928 136.054 70.2677C134.312 71.3232 132.878 70.4533 132.878 68.3422C132.921 67.2084 133.228 66.0991 133.774 65.0984C134.32 64.0976 135.092 63.2315 136.03 62.5656Z" fill="#263238"/>
<path d="M136.043 330.037C139.598 327.868 142.419 329.597 142.431 333.912C142.442 338.227 139.61 343.528 136.078 345.697C132.546 347.866 129.631 346.091 129.619 341.776C129.715 339.472 130.343 337.219 131.455 335.186C132.568 333.153 134.136 331.393 136.043 330.037Z" fill="#263238"/>
<path d="M147.692 170.023C147.384 170.198 147.108 170.421 146.875 170.684C146.69 170.908 146.549 171.164 146.46 171.438C145.681 173.027 145.016 174.667 144.469 176.345C143.876 177.818 143.284 179.303 142.821 180.788C142.682 181.056 142.578 181.34 142.513 181.634C142.338 182.006 142.203 182.395 142.11 182.794L141.15 185.277C141.044 185.52 140.925 185.752 140.819 185.984C140.498 186.681 140.237 187.403 140.036 188.142C139.902 188.457 139.851 188.801 139.886 189.141C139.921 189.481 140.042 189.807 140.238 190.09C141.014 190.826 141.968 191.357 143.011 191.633L143.295 191.714C143.58 191.807 143.864 191.877 144.149 191.958L145.642 192.7L145.926 192.897C146.032 193.008 146.13 193.124 146.223 193.245C146.325 193.369 146.401 193.511 146.448 193.663C146.509 193.911 146.509 194.169 146.448 194.417L146.199 195.577C145.986 196.203 145.761 196.83 145.535 197.444L145.215 198.256C144.884 199.126 144.54 200.008 144.196 200.878C143.852 201.748 143.544 202.455 143.272 203.198C143.014 203.703 142.784 204.222 142.584 204.752C142.466 205.019 142.335 205.286 142.217 205.541C141.897 206.202 141.589 206.863 141.281 207.524L140.996 208.116L140.001 210.041C139.882 210.285 139.752 210.529 139.621 210.772L138.436 212.86C138.342 213.034 138.235 213.208 138.128 213.382C137.702 214.09 137.275 214.809 136.836 215.516L136.481 216.062C135.58 217.395 134.679 218.729 133.767 220.063L132.7 221.536L132.404 221.942L129.097 226.176L127.983 227.417C127.744 227.703 127.46 227.95 127.142 228.148C126.947 228.284 126.717 228.363 126.478 228.378C126.239 228.392 126.001 228.341 125.791 228.229L124.973 227.789C124.973 227.673 124.866 227.649 124.783 227.638C123.65 226.639 122.424 225.745 121.121 224.97C120.883 224.819 120.605 224.738 120.321 224.738C120.037 224.738 119.76 224.819 119.521 224.97C119.374 225.058 119.235 225.159 119.107 225.271C118.571 225.739 118.101 226.273 117.708 226.861C117.576 226.967 117.477 227.108 117.424 227.267C116.428 228.67 115.338 229.923 114.307 231.268C113.347 232.37 112.399 233.507 111.486 234.69C110.965 235.293 110.467 235.908 109.993 236.581C109.413 237.251 108.871 237.952 108.369 238.68C108.153 238.925 107.966 239.194 107.812 239.481C107.544 239.788 107.347 240.148 107.234 240.536C107.122 240.924 107.097 241.332 107.16 241.731C107.15 242.217 107.19 242.703 107.279 243.181C107.325 243.771 107.452 244.353 107.658 244.909C107.706 245.31 107.818 245.702 107.99 246.069C108.038 246.181 108.094 246.289 108.156 246.394C108.162 246.482 108.182 246.568 108.215 246.649C108.268 246.758 108.336 246.859 108.417 246.951C108.502 247.212 108.689 247.429 108.938 247.554C109.101 247.78 109.322 247.96 109.578 248.076C109.728 248.148 109.882 248.21 110.04 248.262L110.348 248.343C110.47 248.405 110.597 248.455 110.728 248.494H110.905C111.113 248.529 111.326 248.529 111.534 248.494C111.578 248.52 111.629 248.534 111.682 248.534C111.734 248.534 111.785 248.52 111.83 248.494C112.09 248.558 112.363 248.558 112.624 248.494C112.91 248.545 113.203 248.545 113.489 248.494C113.784 248.512 114.08 248.484 114.366 248.412H114.888C115.29 248.358 115.687 248.269 116.073 248.146H116.25C116.403 248.123 116.554 248.088 116.701 248.041C116.802 248.013 116.898 247.97 116.985 247.914C117.329 247.809 117.388 247.774 117.459 247.751C117.902 247.611 118.333 247.441 118.751 247.241L119.13 247.055L119.403 246.893C119.66 246.749 119.906 246.586 120.138 246.406L121.003 245.849C121.326 245.629 121.632 245.385 121.915 245.118C122.205 244.939 122.482 244.741 122.745 244.527C122.852 244.445 122.958 244.341 123.065 244.248L123.219 244.086L123.669 243.703C124.12 243.297 124.57 242.879 124.997 242.415C125.354 242.124 125.683 241.802 125.98 241.453C126.094 241.377 126.184 241.273 126.241 241.151C126.858 240.599 127.44 240.01 127.983 239.388C128.461 238.951 128.916 238.49 129.346 238.008C129.712 237.684 130.049 237.331 130.354 236.952L130.899 236.361C131.067 236.231 131.212 236.074 131.325 235.897C131.407 235.84 131.472 235.764 131.515 235.676C131.624 235.578 131.727 235.473 131.823 235.363C131.997 235.186 132.155 234.996 132.297 234.795C132.624 234.463 132.932 234.114 133.222 233.751L133.506 233.379L133.802 233.031C134.348 232.37 134.893 231.732 135.391 231.002C135.657 230.738 135.888 230.442 136.078 230.12C136.415 229.735 136.72 229.323 136.99 228.89C137.45 228.319 137.878 227.722 138.27 227.104C138.519 226.768 138.638 226.617 138.745 226.455C138.851 226.292 138.982 226.141 139.088 225.979C139.195 225.817 139.515 225.329 139.716 224.993L140.131 224.425C140.269 224.227 140.395 224.021 140.51 223.81C140.777 223.468 141.011 223.103 141.21 222.72C141.55 222.248 141.858 221.756 142.134 221.246C142.25 221.116 142.35 220.972 142.43 220.817L142.561 220.597C142.605 220.518 142.645 220.437 142.679 220.353C142.786 220.214 142.881 220.063 142.975 219.913C143.276 219.464 143.548 219 143.793 218.521L144.161 217.917L145.346 215.922C145.498 215.723 145.622 215.505 145.713 215.273C146.009 214.809 146.282 214.322 146.543 213.823L146.792 213.324C146.938 213.099 147.065 212.862 147.171 212.616L148.143 210.807C148.309 210.459 148.486 210.123 148.652 209.786C148.927 209.326 149.165 208.845 149.363 208.348C150.134 206.898 150.809 205.425 151.437 203.94L151.722 203.267C151.992 202.734 152.226 202.184 152.421 201.62C153.156 199.927 153.82 198.21 154.377 196.493C154.377 196.342 154.483 196.203 154.542 196.064C154.919 195.075 155.232 194.064 155.479 193.037C155.894 191.795 156.214 190.566 156.522 189.348C156.616 188.93 156.723 188.524 156.83 188.118C156.903 187.991 156.939 187.847 156.936 187.701C156.936 187.608 156.996 187.515 157.019 187.422L157.162 186.877C157.61 185.385 157.958 183.867 158.205 182.33V182.098C158.243 181.97 158.243 181.833 158.205 181.704V181.46C158.205 181.321 158.205 181.182 158.264 181.031V180.59C158.381 179.947 158.437 179.295 158.43 178.642C158.43 178.375 158.43 178.097 158.43 177.83C158.467 177.642 158.467 177.449 158.43 177.261C158.423 177.157 158.423 177.053 158.43 176.948C158.418 176.376 158.318 175.809 158.133 175.266C157.996 174.461 157.741 173.68 157.375 172.946C156.964 171.753 156.306 170.656 155.443 169.722C155.218 169.387 154.896 169.124 154.519 168.968C154.519 168.898 154.436 168.805 154.317 168.84C154.022 168.609 153.652 168.49 153.274 168.504C152.141 168.456 151.011 168.659 149.968 169.095L149.589 169.246C149.264 169.338 148.951 169.463 148.652 169.617L148.475 169.733C148.261 169.733 147.977 169.861 147.692 170.023Z" fill="white"/>
</svg>
